PathFileType	4	(X/Y/Z)	C:/Users/opensim2020/Desktop/walking_exp_matlab/subject06_walking20_straight_04.trc	
DataRate	CameraRate	NumFrames	NumMarkers	Units	OrigDataRate	OrigDataStartFrame	OrigNumFrames	
100.00	100.00	7	43	mm	100.00	2205	126	
Frame#	Time	LFHD			RFHD			LBHD			RBHD			C7			T10			CLAV			STRN			RBAK			LSHO			LUPA			LELB			LFRM			LWRA			LWRB			LFIN			RSHO			RUPA			RELB			RFRM			RWRA			RWRB			RFIN			LASI			RASI			LPSI			RPSI			LTHI			LKNE			LTIB			LANK			LHEE			LTOE			RTHI			RKNE			RTIB			RANK			RHEE			RTOE			*39			*40			*41			*42			
		X1	Y1	Z1	X2	Y2	Z2	X3	Y3	Z3	X4	Y4	Z4	X5	Y5	Z5	X6	Y6	Z6	X7	Y7	Z7	X8	Y8	Z8	X9	Y9	Z9	X10	Y10	Z10	X11	Y11	Z11	X12	Y12	Z12	X13	Y13	Z13	X14	Y14	Z14	X15	Y15	Z15	X16	Y16	Z16	X17	Y17	Z17	X18	Y18	Z18	X19	Y19	Z19	X20	Y20	Z20	X21	Y21	Z21	X22	Y22	Z22	X23	Y23	Z23	X24	Y24	Z24	X25	Y25	Z25	X26	Y26	Z26	X27	Y27	Z27	X28	Y28	Z28	X29	Y29	Z29	X30	Y30	Z30	X31	Y31	Z31	X32	Y32	Z32	X33	Y33	Z33	X34	Y34	Z34	X35	Y35	Z35	X36	Y36	Z36	X37	Y37	Z37	X38	Y38	Z38	X39	Y39	Z39	X40	Y40	Z40	X41	Y41	Z41	X42	Y42	Z42	X43	Y43	Z43	

48	0.470	1504.48169	500.54745	1643.00464	1373.69287	502.16461	1629.66553	1506.32959	636.37030	1592.83386	1377.95361	635.61011	1585.12524	1443.75818	640.21478	1433.54492	1430.87500	691.49884	1107.50244	1450.43884	531.89905	1353.15186	1454.42505	501.64615	1176.25305	1349.76489	711.45251	1270.06921	1607.13879	601.43250	1382.30249	1671.49561	657.51520	1187.67017	1677.52234	694.31836	1080.66504	1700.03430	718.33282	932.61456	1659.99622	696.74738	803.10052	1697.34399	755.99353	820.31836	1694.67175	748.86505	728.75269	1288.17029	563.08875	1391.24719	1178.40466	580.60016	1204.70959	1153.86377	553.66418	1091.06360	1145.19775	476.95798	1003.74255	1202.25342	355.32748	932.56537	1153.79077	388.11926	900.53320	1163.88770	312.14371	868.76154	1543.69751	513.26331	947.42761	1324.53784	521.25891	947.28546	1522.68237	673.51569	968.78943	1354.40088	671.99164	975.54572	1614.97864	505.50159	639.48389	1584.13647	434.71066	494.17645	1581.18140	394.66708	243.56046	1544.22180	339.20151	78.47228	1496.04578	369.92557	52.24636	1547.28723	194.47163	92.03634	1284.62427	619.30426	616.60815	1307.75073	644.59058	492.08456	1319.34253	776.21179	253.79596	1368.58325	855.16675	86.80704	1414.10547	900.80017	70.64294	1362.66003	713.16638	35.69704	1445.30432	600.49951	1683.18433									 
49	0.480	1505.26758	485.27130	1640.54932	1374.40051	486.82703	1627.18701	1507.04028	620.98694	1590.09021	1378.64331	620.18036	1582.39807	1444.46069	624.87103	1431.01001	1431.72034	675.78668	1104.53735	1451.00500	516.36273	1350.52368	1454.71094	486.11157	1173.56958	1350.41553	696.26642	1267.36304	1608.01978	585.74780	1379.34839	1672.03638	644.65375	1185.58325	1677.61060	683.64874	1079.39832	1700.39795	711.16516	932.14941	1659.51550	692.30994	801.78583	1697.24939	750.91522	820.48682	1693.63953	746.93585	728.74506	1288.62378	547.89020	1388.54736	1178.50562	565.26770	1202.11731	1153.79272	537.93329	1089.00891	1146.07678	459.21881	1003.97662	1204.03076	335.91412	937.16486	1155.85339	367.56845	903.72009	1166.25708	290.62326	874.65961	1544.09448	496.44180	945.06848	1324.53882	505.53683	944.80377	1524.11292	657.01648	965.58807	1355.69324	656.64984	972.68188	1615.92493	487.85422	636.84729	1584.48035	416.81796	492.11813	1582.03223	369.68475	243.06412	1544.85645	308.81445	79.79626	1497.04688	339.05832	52.30506	1546.44055	164.33687	98.23685	1284.60022	605.96490	614.99133	1307.66455	632.08307	490.52936	1319.36853	769.71851	255.06081	1368.33057	853.40350	90.32122	1413.83789	899.47888	75.65154	1362.86877	713.10443	35.63818	1446.00500	585.24188	1680.52295									 
50	0.490	1506.09082	469.83203	1638.39526	1375.12610	471.44983	1625.01624	1507.29688	605.05713	1587.45801	1379.37598	604.68616	1579.96838	1445.32874	609.50262	1428.81812	1432.64612	659.77332	1101.89722	1451.69897	500.78000	1348.29492	1455.12720	470.24771	1171.39917	1351.34839	680.95984	1264.94031	1608.98853	570.11719	1376.80432	1672.75537	631.54865	1183.88416	1678.17944	672.59918	1078.16064	1700.18921	702.69147	931.27539	1658.65234	687.19348	800.92279	1697.38391	744.98456	821.06635	1692.75964	743.65332	729.10455	1289.19446	532.65613	1386.14905	1178.88245	550.04199	1199.74231	1153.98401	522.46387	1087.07556	1146.98364	442.12790	1004.07990	1205.65601	317.36893	941.32587	1157.88354	348.09491	906.48193	1168.51648	270.33521	879.83130	1544.38635	479.51132	942.87024	1324.57666	489.64835	942.59174	1525.65942	640.12775	962.78625	1357.12451	640.90387	969.97528	1617.04749	469.50836	634.77271	1585.05957	398.66946	490.42551	1582.61133	346.34454	242.68243	1545.19055	281.93411	80.80605	1497.51965	311.89938	52.49062	1545.62268	138.16422	102.66879	1284.58875	591.90375	613.52551	1307.63953	618.64374	488.93524	1319.26929	762.33423	256.68280	1367.84656	851.13037	94.58406	1413.25366	897.83423	81.63493	1363.16089	712.75812	35.74358	1446.50232	569.64087	1678.04822									 
51	0.500	1506.92346	454.39151	1636.60107	1375.85632	456.08032	1623.17273	1508.18176	589.57886	1585.56384	1380.22302	589.23328	1577.99792	1446.26880	594.06494	1426.85217	1433.63562	643.66437	1099.59204	1452.53857	485.14749	1346.46887	1455.74292	454.19662	1169.70874	1352.48633	665.57782	1262.84448	1610.11841	554.50031	1374.60889	1673.59387	618.06134	1182.60852	1678.85449	660.93390	1077.50342	1700.82288	693.88776	931.39606	1658.41492	680.80188	800.55530	1697.52637	737.94196	821.75708	1692.02966	739.00641	729.87317	1289.93274	517.45984	1384.21069	1179.56677	535.30487	1197.95520	1154.38000	507.36624	1085.47009	1148.03723	425.75455	1004.14435	1207.03638	299.87305	944.88696	1159.88000	329.84460	908.80188	1170.28625	251.08698	884.49835	1544.58093	462.18488	941.00360	1324.68335	473.40030	940.76038	1527.15833	622.98474	960.57263	1358.56079	624.81842	967.53949	1618.18677	450.53470	633.46326	1585.78467	380.35266	489.29700	1583.29834	324.76236	242.21875	1545.43433	258.72629	81.14223	1497.88269	288.32510	52.15866	1545.41821	115.20289	105.36974	1284.60815	577.22211	612.11536	1307.55505	604.10925	487.34814	1319.14368	754.04700	258.68588	1367.39722	848.50769	99.56349	1412.50256	895.50037	88.51022	1362.98682	712.81647	35.95956	1447.30847	554.22900	1676.13013									 
52	0.510	1507.74463	438.96219	1635.19287	1376.69214	440.60568	1621.63904	1509.10620	573.99408	1584.12000	1381.12231	573.76392	1576.46729	1447.37134	578.69989	1425.21655	1434.63672	627.41876	1097.65637	1453.46008	469.50272	1345.11597	1456.45532	437.92731	1168.56921	1353.81238	649.99744	1260.96350	1611.38196	538.85553	1372.98987	1674.62000	604.14984	1181.75012	1679.60791	648.58270	1077.21252	1701.12146	683.61243	931.40686	1658.48169	673.16022	800.84888	1697.74817	729.73499	822.58893	1691.42224	732.81177	730.85193	1290.83081	502.39371	1382.77075	1180.33130	520.63599	1196.65527	1155.15344	492.61658	1084.20093	1149.26819	410.09464	1004.15491	1208.25586	283.33444	947.73627	1161.80701	312.80383	910.42883	1171.86731	233.44006	888.17767	1544.63086	444.59103	939.67035	1324.94556	457.00150	939.16980	1528.47021	605.56836	958.92230	1360.00220	608.30255	965.43726	1618.95740	431.12268	632.92926	1586.40649	361.89154	488.80420	1583.99365	305.05576	241.60674	1545.78943	238.95816	80.55250	1498.52637	268.75049	51.23154	1544.52185	95.92983	106.28686	1284.75977	561.39777	610.58459	1307.58997	588.40881	485.74069	1319.00562	744.91211	261.03714	1366.95557	844.88190	105.40096	1411.77002	892.30798	96.51768	1363.26794	712.47076	36.11208	1448.13257	538.66223	1674.63977									 
53	0.520	1508.66260	423.22034	1634.16125	1377.46204	425.16144	1620.40051	1510.19666	558.36084	1583.19043	1382.19531	558.34003	1575.35718	1448.68201	563.40979	1423.85046	1435.67090	610.72363	1096.02161	1454.54822	453.90955	1344.15967	1457.32190	421.42264	1167.87061	1355.35547	634.27362	1259.26892	1612.64612	523.20453	1371.79163	1675.76172	589.74170	1181.36890	1680.56763	635.44366	1077.33813	1702.02002	672.84796	932.27411	1658.72644	664.30280	801.56390	1698.28345	720.38989	823.80939	1691.11121	725.15363	732.17712	1291.91321	487.46097	1381.81482	1181.64807	506.27795	1195.76672	1156.37964	478.25000	1083.41443	1150.60071	395.21304	1004.13702	1209.30652	267.77563	949.83124	1163.67578	296.96640	911.46552	1173.15356	217.02565	890.79395	1544.84363	426.69559	938.86005	1325.35327	440.09497	937.98352	1529.66211	587.87378	957.77197	1361.27173	591.32336	963.63660	1619.28259	411.37653	633.04645	1586.76392	343.00006	488.91602	1584.78601	287.18149	240.67508	1546.29163	222.44101	79.00209	1499.57361	252.78247	49.43071	1543.74927	79.73232	105.23311	1284.83191	544.61450	609.14966	1307.53809	571.59149	484.15427	1318.99561	734.76062	263.94653	1366.37451	840.40302	112.30023	1411.43286	888.13409	105.91701	1363.52673	711.92383	36.36077	1449.03784	523.00952	1673.59790									 
54	0.530	1509.47266	407.58582	1633.42908	1378.32397	409.72693	1619.45801	1511.43250	542.68164	1582.70911	1383.41199	543.02411	1574.64331	1450.10376	548.12061	1422.77454	1436.78345	593.71716	1094.62622	1455.71631	438.17029	1343.59875	1458.28943	404.68192	1167.62695	1357.12378	618.48242	1257.83020	1614.01440	507.35687	1371.13074	1677.09424	574.64984	1181.48572	1681.59570	621.52277	1077.84375	1702.80957	660.73987	933.21051	1659.19226	654.09723	802.53979	1698.96606	709.73438	825.35144	1691.10156	716.08429	733.80463	1293.11426	472.69113	1381.28723	1183.11707	492.27567	1195.20313	1158.02734	464.30020	1082.95142	1152.08386	381.00055	1004.07843	1210.36353	253.03755	951.08661	1165.36169	282.28793	911.89539	1174.12878	202.26921	892.33990	1545.21143	408.39960	938.48108	1325.89172	422.85760	937.17963	1530.74683	569.75507	957.01636	1362.49951	573.86249	962.21863	1619.19702	391.48401	633.64905	1586.84790	323.71002	489.44238	1585.63989	271.05093	239.47772	1547.06274	208.98196	76.85126	1501.06738	240.11310	47.00344	1542.86560	66.13457	102.29774	1284.89197	526.61584	607.73938	1307.34387	553.29352	482.69507	1319.38745	723.55298	267.46289	1366.31958	834.78827	120.04934	1411.41699	882.22144	116.22033	1363.73352	711.07758	36.56013	1450.00488	507.27518	1672.91125									 
